<svg id="Layer_1" data-name="Layer 1" xmlns="http://www.w3.org/2000/svg" xmlns:xlink="http://www.w3.org/1999/xlink" viewBox="0 0 533 533"><defs><style>.cls-1,.cls-4,.cls-5,.cls-6,.cls-7,.cls-8{fill:none;}.cls-2{clip-path:url(#clip-path);}.cls-3{fill:#0a0c06;}.cls-4,.cls-5,.cls-6,.cls-7,.cls-8{stroke:#0a0c06;stroke-miterlimit:10;}.cls-4{stroke-width:0.35px;}.cls-5,.cls-6{stroke-width:1.76px;}.cls-6,.cls-7,.cls-8{stroke-linecap:round;}.cls-7{stroke-width:3.48px;}.cls-8{stroke-width:3.52px;}</style><clipPath id="clip-path"><rect class="cls-1" width="533" height="533"/></clipPath></defs><title>Artboard 1</title><g class="cls-2"><path class="cls-3" d="M278.24,406.34V420.4h-116V406.34h31.64V146.18H162.23V132.12h10.54s49.22,14.06,70.32,49.22v84.37h15.82v14.06H243.09V406.34Z"/></g><g class="cls-2"><path class="cls-4" d="M278.24,406.34V420.4h-116V406.34h31.64V146.18H162.23V132.12h10.54s49.22,14.06,70.32,49.22v84.37h15.82v14.06H243.09V406.34Z"/></g><g class="cls-2"><path class="cls-3" d="M265.94,265.71v14.06s22.85,3.52,26.37,14.07S295.82,329,295.82,329h14.07V216.49H295.82s.1,20.69-3.51,35.16c-3.52,14.06-26.37,14.06-26.37,14.06"/></g><g class="cls-2"><path class="cls-4" d="M265.94,265.71v14.06s22.85,3.52,26.37,14.07S295.82,329,295.82,329h14.07V216.49H295.82s.1,20.69-3.51,35.16C288.79,265.71,265.94,265.71,265.94,265.71Z"/></g><g class="cls-2"><path class="cls-3" d="M348.56,177.12h21.09V220H359.1s0-28.13-10.54-38.67Z"/></g><g class="cls-2"><path class="cls-4" d="M348.56,177.12h21.09V220H359.1s0-28.13-10.54-38.67Z"/></g><g class="cls-2"><path class="cls-3" d="M324,128.6s45.7-14.06,49.22,3.52-66.8,45.7-80.86,38.67l-3.52,3.51h80.86c28.13,0,7-14.07,7-17.58s4.9-6.55,3.52-17.58C376.68,111,324,128.6,324,128.6"/></g><g class="cls-2"><path class="cls-5" d="M324,128.6s45.7-14.06,49.22,3.52-66.8,45.7-80.86,38.67l-3.52,3.51h80.86c28.13,0,7-14.07,7-17.58s4.9-6.55,3.52-17.58C376.68,111,324,128.6,324,128.6"/></g><g class="cls-2"><path class="cls-6" d="M274.73,132.12s31.64-17.58,45.7-17.58a27.11,27.11,0,0,1,21.27,10.2m-109.16-10.2s17.58-7,31.64-3.52S293.5,122.6,293.5,122.6m12.87,23.58s-16.77,37.29-42.19,45.7c-10.47,3.47-22.56-19.24-30.65-27.22-3.64-3.6-11.75-10.46-14.74-12.95-15.11-12.57-35.47-26.63-35.47-26.63-4.06-2.33-3.52-17.57,3.52-17.57s7.75,2.18,12.12,4.23m-4.17-2.4c6.8-4.12,12.63-3.81,26.69-3.81s19.12,6.18,19.12,6.18"/></g><g class="cls-2"><path class="cls-3" d="M181.56,123.33s-8.52,7.36-5.95,8c9.13,2.18,20.92,8.13,36.65,17.49a180.07,180.07,0,0,1,18.57,13.07s-10.86-10.64-31.3-24.69C184.61,126.93,181.91,123.33,181.56,123.33Z"/></g><g class="cls-2"><path class="cls-4" d="M181.56,123.33s-8.52,7.36-5.95,8c9.13,2.18,20.92,8.13,36.65,17.49a180.07,180.07,0,0,1,18.57,13.07s-10.86-10.64-31.3-24.69C184.61,126.93,181.91,123.33,181.56,123.33Z"/></g><g class="cls-2"><path class="cls-3" d="M267.7,228.8a5.28,5.28,0,1,1-5.28-5.28,5.28,5.28,0,0,1,5.28,5.28"/></g><g class="cls-2"><circle class="cls-6" cx="262.42" cy="228.8" r="5.27"/></g><g class="cls-2"><path class="cls-3" d="M267.7,246.38a5.28,5.28,0,1,1-5.28-5.28,5.28,5.28,0,0,1,5.28,5.28"/></g><g class="cls-2"><circle class="cls-6" cx="262.42" cy="246.38" r="5.27"/></g><g class="cls-2"><line class="cls-7" x1="262.42" y1="193.67" x2="262.42" y2="288.6"/></g><g class="cls-2"><path class="cls-3" d="M267.7,292.08a5.28,5.28,0,1,1-5.28-5.27,5.28,5.28,0,0,1,5.28,5.27"/></g><g class="cls-2"><circle class="cls-8" cx="262.42" cy="292.08" r="5.27"/></g><g class="cls-2"><path class="cls-3" d="M257.15,290.32s-3.52,15.82-3.52,21.1v45.7c0,3.52-1.75,40.43,0,42.19s17.58,1.76,19.34,0,0-43.95,0-56.25c0-7.86-1.76-28.13-1.76-35.16,0-1.76-3.51-17.58-3.51-17.58H257.15"/></g><g class="cls-2"><path class="cls-6" d="M257.15,290.32s-3.52,15.82-3.52,21.1v45.7c0,3.52-1.75,40.43,0,42.19s17.58,1.76,19.34,0,0-43.95,0-56.25c0-7.86-1.76-28.13-1.76-35.16,0-1.76-3.51-17.58-3.51-17.58Z"/></g><g class="cls-2"><polyline class="cls-3" points="48.04 346.1 38.73 319.84 46.49 317.3 52.02 332.89 58.33 330.82 53.6 317.51 60.9 315.12 65.62 328.44 80.38 323.6 84.16 334.27 48.04 346.1"/></g><g class="cls-2"><polyline class="cls-3" points="39.37 317.19 37.35 304.88 48.88 295.67 34.97 290.39 32.96 278.15 57.14 288.71 72.91 286.27 74.74 297.39 58.97 299.83 39.37 317.19"/></g><g class="cls-2"><path class="cls-3" d="M58.86,278.51l-.56-10.69a8.78,8.78,0,0,0,4.18-1.38,5.86,5.86,0,0,0,2.38-4.94,5.25,5.25,0,0,0-1.12-3.71,3.5,3.5,0,0,0-5.4-.11c-.79.82-1.56,2.74-2.29,5.74q-1.84,7.38-4.77,10.51a9.59,9.59,0,0,1-7.4,3.12,10.23,10.23,0,0,1-5.52-1.65,10.74,10.74,0,0,1-4-4.91,21.52,21.52,0,0,1-1.38-9q.09-7,2.87-10.6t8.69-4.3L45,257.22A6.1,6.1,0,0,0,41.24,259,5.5,5.5,0,0,0,40,262.69a4.29,4.29,0,0,0,.84,3,2.65,2.65,0,0,0,2.09,1,2.15,2.15,0,0,0,1.65-.8,9,9,0,0,0,1.46-3.76,45,45,0,0,1,3.52-10.52,10.71,10.71,0,0,1,9.94-6,12.49,12.49,0,0,1,6.73,2A12.16,12.16,0,0,1,70.88,253a20.9,20.9,0,0,1,1.47,8.76q-.13,9.27-3.92,12.82a15.19,15.19,0,0,1-9.57,4"/></g><g class="cls-2"><polyline class="cls-3" points="36.05 238.17 37.74 227.02 75.47 232 73.78 243.15 36.05 238.17"/></g><g class="cls-2"><polyline class="cls-3" points="39.15 218.29 42.48 207.5 56.3 211.31 45.98 196.18 50.41 181.84 60.27 198.37 87.14 191.36 83.03 204.65 65.72 207.86 70.11 215.12 79.04 217.58 75.7 228.38 39.15 218.29"/></g><g class="cls-2"><polyline class="cls-3" points="51.52 179.51 67.52 148.88 75.94 152.84 70.57 163.12 96.25 175.21 90.98 185.29 65.31 173.2 59.94 183.48 51.52 179.51"/></g><g class="cls-2"><polyline class="cls-3" points="69.91 145.32 88.24 120.71 94.86 125.18 83.39 140.59 88.32 143.91 98.97 129.62 105.3 133.89 94.65 148.18 100.77 152.31 112.58 136.45 119.61 141.19 100.95 166.25 69.91 145.32"/></g><g class="cls-2"><polyline class="cls-3" points="95.21 112.72 103.83 105.03 113.64 115.04 112.88 96.96 124.35 86.74 123.97 105.8 150.75 112.82 140.12 122.3 123.56 116.65 123.44 125.05 129.78 131.52 121.15 139.21 95.21 112.72"/></g><g class="cls-2"><polyline class="cls-3" points="133.28 80.61 142.68 75.13 165.89 85.1 154.96 67.97 164.46 62.43 184.21 93.41 174.71 98.94 151.66 89.06 162.5 106.07 153.03 111.59 133.28 80.61"/></g><g class="cls-2"><path class="cls-3" d="M188.5,71.34c1.1,3.51,2.58,5.84,4.42,7a7.56,7.56,0,0,0,6.33.67,7.23,7.23,0,0,0,4.92-3.89q1.28-2.84-.55-8.67-1.55-4.91-4.35-6.55a7.68,7.68,0,0,0-6.34-.63,7.13,7.13,0,0,0-4.76,3.89c-.9,1.94-.79,4.67.33,8.21m-11.3,3.24q-2.69-8.51.81-14.7t12.38-8.78q9.12-2.66,15.52.58t9,11.6a21.48,21.48,0,0,1,1,10.64,15.26,15.26,0,0,1-4.32,7.88,21.93,21.93,0,0,1-9.46,5.11A25.66,25.66,0,0,1,191.32,88a16.36,16.36,0,0,1-8.41-4A20.25,20.25,0,0,1,177.2,74.58Z"/></g><g class="cls-2"><polyline class="cls-3" points="215.93 45.32 227.56 43.51 232.02 70.56 250.18 67.73 251.63 76.57 221.84 81.2 215.93 45.32"/></g><g class="cls-2"><path class="cls-3" d="M264.1,58.16q-.19,5.51,1.86,8a8.38,8.38,0,0,0,11.71.35q2.16-2.3,2.37-8.4.18-5.13-1.93-7.54A7.45,7.45,0,0,0,272.32,48a7.38,7.38,0,0,0-5.8,2.26q-2.24,2.35-2.42,7.9m-11.78-.35q.31-8.89,5.68-13.72t14.64-4.59q9.51.24,14.49,5.26t4.68,13.76a21.62,21.62,0,0,1-2.62,10.4,15.75,15.75,0,0,1-6.71,6.18,22.35,22.35,0,0,1-10.66,2,25.34,25.34,0,0,1-10.61-2.23,15.6,15.6,0,0,1-6.62-6.37A19.71,19.71,0,0,1,252.32,57.81Z"/></g><g class="cls-2"><path class="cls-3" d="M314.28,69.56l1.92-7.34,17.66,4.11-3.95,15.06a39.53,39.53,0,0,1-10.16,2.41,33.06,33.06,0,0,1-9.54-1q-6.58-1.55-10.18-4.65a14.93,14.93,0,0,1-4.76-7.89A20.75,20.75,0,0,1,295.55,60a20.66,20.66,0,0,1,5.13-9.46,17,17,0,0,1,9-4.8,25.73,25.73,0,0,1,10.56.65,29.94,29.94,0,0,1,8.88,3.19,11.77,11.77,0,0,1,4.18,4.48,14.26,14.26,0,0,1,1.55,6.34l-11.52-.69a5.63,5.63,0,0,0-1.52-3.6,7.35,7.35,0,0,0-3.85-2,8,8,0,0,0-6.66,1.1C309.4,56.53,308,59,307,62.58q-1.5,5.73.1,8.72a8.09,8.09,0,0,0,5.66,3.92,12.94,12.94,0,0,0,3.8.33,22,22,0,0,0,4.46-.88l.87-3.33-7.64-1.78"/></g><g class="cls-2"><path class="cls-3" d="M335.39,76.9l10.38,4a7.83,7.83,0,0,0-.49,4.19,6,6,0,0,0,3.66,4.13,5.93,5.93,0,0,0,4,.6,3.6,3.6,0,0,0,2.45-1.8,3.21,3.21,0,0,0,0-2.82c-.43-1-1.92-2.49-4.45-4.39q-6.19-4.7-7.9-8.54a8.54,8.54,0,0,1,.23-7.7,9.82,9.82,0,0,1,3.95-4.06,11.7,11.7,0,0,1,6.41-1.42,24.53,24.53,0,0,1,9.09,2.58q6.57,3,8.81,7t.33,9.31l-10.27-4a5.37,5.37,0,0,0,0-4,5.75,5.75,0,0,0-3-2.62,4.84,4.84,0,0,0-3.17-.52,2.68,2.68,0,0,0-1.86,1.38,2,2,0,0,0,.06,1.77,9.18,9.18,0,0,0,2.93,2.83q6.21,4.62,8.45,7.47a10.63,10.63,0,0,1,2.53,5.63,9.84,9.84,0,0,1-1.1,5.49,11.88,11.88,0,0,1-4.79,5,13.32,13.32,0,0,1-7.15,1.7,23.83,23.83,0,0,1-8.95-2.42q-8.73-4-10.46-8.79a13.48,13.48,0,0,1,.36-9.93"/></g><g class="cls-2"><polyline class="cls-3" points="383.57 74.19 409.16 91.67 404.4 97.99 388.38 87.05 384.83 91.75 399.7 101.9 395.15 107.94 380.28 97.79 375.88 103.63 392.37 114.88 387.32 121.58 361.26 103.8 383.57 74.19"/></g><g class="cls-2"><polyline class="cls-3" points="416.84 98.88 424.84 107.08 414.26 116.47 433.22 115.68 443.85 126.58 423.87 126.28 416.3 151.86 406.44 141.75 412.5 125.94 403.69 125.86 396.86 131.93 388.86 123.72 416.84 98.88"/></g><g class="cls-2"><polyline class="cls-3" points="446.63 130.03 465.05 159.21 456.97 163.87 450.8 154.07 426.18 168.29 420.12 158.69 444.74 144.48 438.56 134.69 446.63 130.03"/></g><g class="cls-2"><polyline class="cls-3" points="467.7 165.44 472.27 175.79 437.14 190.07 432.56 179.72 467.7 165.44"/></g><g class="cls-2"><path class="cls-3" d="M463.55,198.94c-3.79.61-6.41,1.72-7.84,3.32a6.78,6.78,0,0,0-1.55,5.91,6.87,6.87,0,0,0,3.38,5.13q2.77,1.56,9.09.55,5.31-.85,7.4-3.31a7.34,7.34,0,0,0-1.89-10.89q-2.83-1.64-8.59-.71m-1.84-11.08q9.21-1.49,15.18,2.58t7.46,12.79q1.53,9-2.69,14.6T468.37,225a24.5,24.5,0,0,1-11.19-.39,15.91,15.91,0,0,1-7.62-5.05,19.88,19.88,0,0,1-4-9.58,22.26,22.26,0,0,1,.3-10.37,15.44,15.44,0,0,1,5.32-7.46,22.23,22.23,0,0,1,10.56-4.24Z"/></g><g class="cls-2"><polyline class="cls-3" points="488.67 226.89 489.75 237.32 470.18 253.04 491.17 250.94 492.26 261.46 454.33 265.26 453.23 254.73 472.65 239.11 451.83 241.19 450.74 230.69 488.67 226.89"/></g><g class="cls-2"><polyline class="cls-3" points="492.12 272 490.17 302.06 482.05 301.63 483.27 282.81 477.22 282.49 476.09 299.94 468.33 299.53 469.46 282.07 461.96 281.67 460.71 301.03 452.09 300.57 454.08 269.97 492.12 272"/></g><g class="cls-2"><polyline class="cls-3" points="488.27 311.61 485.45 321.76 461.38 329.97 481.77 335.01 478.92 345.26 442.08 336.14 444.93 325.89 468.82 317.72 448.59 312.72 451.43 302.49 488.27 311.61"/></g><g class="cls-2"><path class="cls-3" d="M134.08,437.59l5.7,8.61a20.67,20.67,0,0,1-7.47,3,16,16,0,0,1-7.24-.44,21.82,21.82,0,0,1-7.41-4.24,23.65,23.65,0,0,1-6.48-7.6,13.79,13.79,0,0,1-.78-8.65c.63-3.28,2.57-6.57,5.82-9.84q6.5-6.54,13.78-6.91t14.32,5.39q5.46,4.5,6.58,9.08t-1.48,10l-9.48-4.9a7.91,7.91,0,0,0,.88-2.48,5.8,5.8,0,0,0-.41-3,6.41,6.41,0,0,0-1.93-2.5,7.58,7.58,0,0,0-6.87-1.61c-1.91.43-4,1.83-6.38,4.19q-4.35,4.38-4.51,7.23a5.9,5.9,0,0,0,2.5,5,7,7,0,0,0,5.17,1.88,12.66,12.66,0,0,0,5.69-2.24"/></g><g class="cls-2"><polyline class="cls-3" points="157.59 427.25 167.9 432.95 160.81 443.57 172.06 449.8 179.15 439.18 189.5 444.9 169.25 475.26 158.9 469.54 167.09 457.26 155.84 451.03 147.65 463.31 137.35 457.61 157.59 427.25"/></g><g class="cls-2"><path class="cls-3" d="M200.92,471.35l.61-13.35-8.71,10.74,8.1,2.61m-.43,8-12.94-4.17-3.93,5L172,476.4l26.82-29,12.39,4L212,489.3l-11.89-3.83Z"/></g><g class="cls-2"><polyline class="cls-3" points="223.34 454.4 235.16 456.54 229.42 482.8 247.87 486.15 245.99 494.73 215.72 489.24 223.34 454.4"/></g><g class="cls-2"><polyline class="cls-3" points="251.59 458.73 267.42 458 274.73 479.31 279.62 457.44 295.4 456.72 297.37 492.2 287.54 492.65 286.04 465.59 279.91 493 271.01 493.41 261.91 466.7 263.41 493.76 253.56 494.21 251.59 458.73"/></g><g class="cls-2"><polyline class="cls-3" points="299.97 455.56 330.75 446.67 333.27 453.89 314 459.47 315.88 464.85 333.75 459.68 336.16 466.58 318.28 471.75 320.61 478.43 340.44 472.69 343.11 480.36 311.77 489.43 299.97 455.56"/></g><g class="cls-2"><path class="cls-3" d="M354.11,452l4.46-2.22a17.55,17.55,0,0,0,2.55-1.82,2.79,2.79,0,0,0,1.12-1.82,3,3,0,0,0-.41-2.15,3.52,3.52,0,0,0-2.44-1.79q-1.53-.29-4.43,1.15l-4.65,2.31,3.8,6.34m.5,23.83-18.69-31.18,17.62-8.77a31.09,31.09,0,0,1,8-3,9.9,9.9,0,0,1,5.89.77,10.33,10.33,0,0,1,4.61,4.25,8.77,8.77,0,0,1,0,9.79,13.69,13.69,0,0,1-3,3.08,13.59,13.59,0,0,1,3.44-.22,12.72,12.72,0,0,1,2.66.8,16.08,16.08,0,0,1,2.66,1.19l10.53,6.5L376.33,465,365,458.28a9.42,9.42,0,0,0-3.35-1.45,5.51,5.51,0,0,0-3,.57l-.93.46,7.59,12.65Z"/></g><g class="cls-2"><path class="cls-3" d="M383.38,446.5l8.72-6.81a8.87,8.87,0,0,0,3.78,2.27,6.81,6.81,0,0,0,5.67-1.2,5.38,5.38,0,0,0,2.45-3,3.08,3.08,0,0,0-.58-2.83,3.71,3.71,0,0,0-2.69-1.24c-1.19-.1-3.29.49-6.29,1.74q-7.41,3-11.88,2.75a9.79,9.79,0,0,1-7.25-3.6,8.82,8.82,0,0,1-2-5.07,9.82,9.82,0,0,1,1.65-5.93,23.08,23.08,0,0,1,6.74-6.39q6-4.11,10.78-4.22t9.05,3.86l-8.67,6.71a6.26,6.26,0,0,0-3.83-1.73,6.41,6.41,0,0,0-3.91,1.31,4.39,4.39,0,0,0-2,2.4,2.2,2.2,0,0,0,2.15,2.89,10.73,10.73,0,0,0,4.1-1.17,52.37,52.37,0,0,1,11.11-3.69,12.69,12.69,0,0,1,6.56.41,10.77,10.77,0,0,1,4.73,3.34,10.67,10.67,0,0,1,2.51,6.17,11,11,0,0,1-1.73,6.68,22.45,22.45,0,0,1-6.52,6.33q-7.95,5.46-13.31,4.77a15.59,15.59,0,0,1-9.33-4.71"/></g><g class="cls-2"><path class="cls-3" d="M454.61,374.37a17.94,17.94,0,1,1-.35-.5l.35.5"/></g><g class="cls-2"><path class="cls-3" d="M102.15,375.09a18.12,18.12,0,1,1-.35-.49l.35.49"/></g></svg>