<?xml version="1.0" encoding="utf-8"?>
<!-- Generator: Adobe Illustrator 22.0.0, SVG Export Plug-In . SVG Version: 6.00 Build 0)  -->
<svg version="1.1" id="Layer_1" xmlns="http://www.w3.org/2000/svg" xmlns:xlink="http://www.w3.org/1999/xlink" x="0px" y="0px"
	 viewBox="0 0 9033 3516" style="enable-background:new 0 0 9033 3516;" xml:space="preserve">
<style type="text/css">
	.st0{fill:#FFFFFF;}
</style>
<g>
	<path class="st0" d="M9033,1920c0,531.9,0,1063.8,0,1596c-2594,0-5188,0-7782,0c0.6-2.9,1.6-5.8,1.6-8.7c0.1-32,0.1-64,0-96
		c0-2.9-0.9-5.7-1.6-9.5c-5.9,0-11.4,0-16.8,0c-85.5,0-171,0-256.5,0c-46,0-92,0-138,0c-5.4,0-10.7-0.4-16.5-0.6
		c-2-7.3-1.3-13.8-1.3-20.1c0-434,0-868,0-1301.9c0-4-0.2-8,0.1-12c0.2-2.8,0.9-5.6,1.6-9.3c5.6,0,10.5,0,15.5,0c24,0,48,0.1,72,0
		c55-0.3,110,0.9,164.8,6.3c36.3,3.6,72.4,9.1,107.7,18.3c35.7,9.3,66.5,27.2,92.2,53.4c10.4,10.7,20.3,22.1,29.2,34.1
		c28.2,38.1,48.4,80.4,62.9,125.4c20,62.1,31,126.1,39.1,190.6c6.1,49.1,10.4,98.4,12.9,147.9c0.2,4.8-0.5,10,2.8,14.3
		c15.3,1.7,78.5,1.4,89.9-0.4c0.4-1.2,1.3-2.6,1.3-4c0.1-412,0.1-823.9,0.1-1235.9c0-1.9-0.7-3.8-1.2-6.9c-10-1.4-19.9-0.6-29.8-0.7
		c-10.5-0.1-21-0.3-31.5,0c-9.8,0.3-19.8-1.4-30.2,1.5c-0.6,4.7-1.4,9.1-1.7,13.5c-2.8,49.9-8,99.6-15.8,149
		c-7.5,47.5-17.7,94.3-33,139.9c-19.5,58.1-49,110.4-90.4,155.8c-33.6,36.8-74,61.7-123.2,72.7c-53.4,11.9-107.5,18.1-161.9,19.8
		c-54,1.7-108,1-162,1.3c-3.4,0-6.7-0.6-10.6-1c-1.5-7.1-0.9-13.5-0.9-19.9c0-412,0-824,0-1235.9c0-4-0.2-8,0.1-12
		c0.2-2.8,1-5.6,1.6-9c6.7-0.1,12.7-0.3,18.6-0.3c132,0,264,0,396,0c44.5,0,89-0.2,133.5,0.5c57,0.9,113.9,4.3,170.2,14
		c41.9,7.2,83,17.5,122.8,32.7c62.8,24,114.5,62.6,155.3,116c19.5,25.5,36.6,52.4,51.6,80.8c26.5,50.1,46.6,102.8,63.3,156.8
		c15.4,49.7,26.8,100.4,39,150.9c3.3,13.5,6.3,27.1,9.6,41c-3.9,4-7.2,7.6-10.8,11c-106.6,103.9-193.2,222.4-259,356
		c-83.7,169.8-127.2,349.6-132.3,538.8c-1.9,68.1,2.1,135.9,11,203.4c8.7,66,22.2,131,41.2,194.8
		c66.9,224.5,185.8,417.1,356.3,577.6c135.2,127.2,291,220.6,466.6,280.8c76.3,26.1,154.4,44.8,234.3,56
		c40.6,5.7,81.4,9.7,122.3,11.5c45,2,89.9,2.3,134.9,1c70-2,139.9-3.1,209.9-5c48-1.3,95.9-3.4,143.9-5.3c31-1.2,61.9-2.3,92.9-3.9
		c44.9-2.3,89.8-4.9,134.7-7.6c38.9-2.3,77.9-4.3,116.7-7.2c55.8-4.2,111.6-8.8,167.4-13.8c44.8-4,89.6-7.9,134.3-13.3
		c57-6.8,114-14.7,170.8-22.8c58.9-8.4,117.3-19.5,175.1-33.6c41.8-10.1,83-22,122.7-38.7c19.8-8.4,39-18,56.7-30.4
		c17.9-12.5,33-27.7,42.9-47.3c8.1-16,16.1-32.2,22.7-48.9c14.9-37.2,24.7-76,33.2-115.1c19.1-87.1,30-175.3,38.4-263.9
		c4.3-45.3,7.1-90.7,10.3-136.1c6.4-91.3,9.2-182.7,10.6-274.2c1-67,1.2-134,0.6-201c-0.6-70.5-1.7-141-4-211.4
		c-2.6-76.4-6.6-152.8-10.6-229.2c-2.8-52.4-5.9-104.8-10.3-157.1c-5.8-70.7-12.7-141.4-19.6-212c-6.3-64.2-14.6-128.1-23.8-191.9
		c-10.8-75.2-23.5-150.1-39.9-224.3c-11.3-51.3-24.3-102.1-41.7-151.7c-10.3-29.3-22.1-57.9-37.7-84.8c-12.5-21.4-27.9-40.2-48-55
		c-17-12.5-34.8-23.5-53.5-33c-28.6-14.5-58.4-26-88.9-35.8c-92.2-29.5-187.3-45.4-283.1-57.1c-32.7-4-65.6-7.2-98.4-10.1
		c-35.8-3.1-71.7-5.7-107.7-8c-28.9-1.8-57.9-3.2-86.9-3.9c-63-1.5-125.9-2.4-188.9-3.4c-14.5-0.2-28.9,0-44.3,0
		c-2.3-5.6-4.6-11.1-6.7-16.6c-34.8-91.6-71.9-182.2-114-270.7c-22.5-47.4-46.4-94.1-74.6-138.5c-11.5-18.2-24-35.6-37.8-52.1
		c-17.7-21.2-39.2-37.1-65.4-46c-16-5.5-32.2-10.7-48.7-14.8c-50.7-12.5-102.4-18.1-154.3-20.3c-89.5-3.7-178.9-2.9-267.7,11.3
		c-31.1,5-61.8,11.8-91.8,21.4c-38.3,12.3-70.1,33.7-94.2,66c-13.4,18-26.5,36.3-38.6,55.3c-23.5,36.7-43.4,75.3-62.5,114.4
		c-43.8,89.4-82,181.1-117.7,274c-2.1,5.6-4.4,11-6.9,17.3c-7.4,0.1-14.3,0.2-21.3,0.2c-738.5,0-1476.9,0-2215.4,0
		c-9,0-18,0.2-27,0.4C0,376,0,188,0,0c3011,0,6022,0,9033,0c0,616,0,1232,0,1848c-6-0.3-11.9-0.9-17.9-0.9c-141-0.1-282,0-423,0
		c-4,0-8-0.2-12,0.1c-2.8,0.2-5.5,1.1-9.1,1.9c0,12.2-0.3,23.6,0.1,35.1c0.3,11.8-1.6,23.7,1.7,36.4c7.9,0,15.3-0.1,22.8,0
		c29,0.3,58-1,86.9,2.3c15,1.7,29.6,4.5,43.6,10.2c15.7,6.4,27,17.1,32,33.5c3.2,10.5,6.1,21.1,7.9,31.9c5.2,30.7,6,61.6,6,92.7
		c0,210.5,0,421,0,631.5c0,4,0.1,8-0.1,12c-0.1,1.7-0.9,3.3-2,7.4c-51.8-76.4-102.1-150.9-152.5-225.3
		c-50.2-74.1-100.3-148.2-150.4-222.3c-50.4-74.5-100.8-149.1-151.2-223.6c-50.4-74.4-100.6-149-151.5-223.7c-7.1,0-13.5,0-20,0
		c-178,0-356,0-534,0c-4,0-8-0.2-12,0.1c-2.9,0.2-5.7,0.8-8.3,1.2c-2.4,13.5-2.3,59,0.2,71.5c4.1,0.2,8.5,0.6,12.9,0.6
		c18.5,0.1,37-0.3,55.5,0.1c18.5,0.4,37,1,55.4,2.6c10.9,1,21.7,3.5,32.2,6.4c15.1,4.1,25.3,14.1,28.9,29.6
		c2.9,12.6,5.7,25.4,6.7,38.3c1.7,21.9,2.6,43.9,2.6,65.9c0.2,345.5,0.1,691,0.1,1036.5c0,10.5,0.1,21-0.2,31.5
		c-0.9,30-1.6,60-5.5,89.8c-1.7,13.4-4.1,26.7-8.6,39.5c-3.9,10.9-10.7,19.3-21.1,24.2c-8.1,3.8-16.6,7-25.2,9.2
		c-17.5,4.5-35.4,6.2-53.5,6.3c-21.5,0.1-43,0-64.5,0.2c-3.3,0-6.5,0.9-9.6,1.4c-2.1,20.1-1.5,62,1.1,73.2
		c5.6,0.1,11.5,0.4,17.5,0.4c148,0,296,0,444,0c3.5,0,7,0.2,10.5-0.1c2.8-0.2,5.6-1,8-1.4c2.3-21.4,1.6-62.2-1.3-73.1
		c-5.1-0.1-10.5-0.4-15.9-0.4c-32.5-0.2-65,0-97.5-0.6c-17.5-0.3-34.7-3.3-51.7-8c-20.7-5.8-33.8-18.8-38.6-39.6
		c-2.7-11.7-4.9-23.5-6.5-35.3c-3.1-22.8-3.1-45.9-3.1-68.9c0-357.5,0-715,0-1072.5c0-4.5,0-9,0.1-13.5c0-1.3,0.7-2.6,1.4-4.8
		c5.2,2.9,7.1,7.6,9.7,11.5c199.1,294.4,398.1,588.8,597.2,883.3c97.4,144.1,194.8,288.2,292.3,432.3c2.8,4.1,5.7,8,8.5,12
		c9.4,0,17.9,0,26.4,0c9,0,18,0.2,27-0.1c8.3-0.2,16.7,1.1,25.8-1.3c0.1-7.6,0.3-14.5,0.3-21.4c0-436,0-872,0.1-1307.9
		c0-16.5,0.4-33,1.5-49.5c1.2-18.5,4.2-36.7,11.4-54c5.7-13.7,15.2-23.5,28.9-28.7c7.9-3,16.1-5.5,24.4-7.2
		c21.1-4.3,42.6-5.4,64.1-5.6C8999,1920.3,9016,1920.2,9033,1920z M7490.7,2605.2c-0.2-39-2.7-85.3-8-131.6
		c-5.6-48.8-14.6-96.8-27.9-144c-27.6-98-72-187.3-139.4-264.3c-48.4-55.2-103.9-102.4-165.9-141.8c-77-48.9-160.6-80.3-251.1-92.7
		c-66.3-9.1-132.7-7.8-198.7,3.1c-88.5,14.5-170.6,46.2-244.6,97c-151.3,103.8-252.8,243.7-301.9,420.9
		c-18.5,66.8-27.9,134.9-30.9,204.1c-4.2,94.9,2.8,188.8,24.7,281.4c32.4,137.2,95.9,257.9,192.4,360.9
		c66,70.4,143.6,123.8,234.3,157.5c56.6,21,115,33.2,175.1,38c59.1,4.8,117.8,3.3,176.4-6.2c71.8-11.6,139.5-34.8,202.5-70.9
		c99.1-56.8,178.6-134.3,240.3-230.1c56.9-88.3,90.4-185.5,108-288.6C7486.3,2736.6,7490.6,2674.8,7490.7,2605.2z M5168.3,1922.5
		c2.2,6.3,1.1,13.3,1.1,20.2c0.1,444.9,0.1,889.8,0.1,1334.8c0,4.5,0.1,9-0.1,13.5c-0.1,2.8-0.8,5.6-1.4,9.4c-6.2,0-11.6,0-17,0
		c-65,0-130,0-195,0.1c-5.3,0-10.9-1-15.6,1.4c-2.3,15.2-2,61.2,0.3,72.1c0.9,0.4,1.7,1.1,2.6,1.2c2.5,0.3,5,0.4,7.5,0.4
		c273.4-0.1,546.9-0.3,820.3-0.5c0.5,0,1-0.1,1.4-0.4c0.4-0.2,0.7-0.7,1-1.1c0.4-0.9,1.1-1.8,1.1-2.6c0.1-21.5,0.2-43,0.1-64.5
		c0-1.8-1.2-3.6-2-6c-5.8,0-11.3,0-16.7,0c-65,0-130,0-195-0.1c-5.3,0-10.9,0.9-17-1.6c-0.1-6.6-0.3-13-0.3-19.4
		c0-445.9,0-891.8,0-1337.8c0-4-0.2-8,0.1-12c0.2-2.8,1.1-5.5,1.8-8.8c21.7-0.3,42.6-0.4,63.5,1.6c56.5,5.5,106.2,26.6,149.4,63.3
		c24.2,20.5,44.5,44.5,62.3,70.6c21.5,31.5,38.6,65.3,53.2,100.5c22.8,55.2,38.6,112.4,51.1,170.6c1.2,5.8,2.7,11.5,3.9,17
		c13.4,2.3,55.8,2.2,67.8,0c0.4-1.2,1.3-2.6,1.2-4c-2.8-161.4-5.6-322.9-8.5-484.3c0-2.4-0.8-4.8-1.5-8.1
		c-6.5-1.3-12.9-0.9-19.3-0.9c-407.9,0-815.9,0-1223.8,0c-4,0-8-0.2-12,0.1c-2.8,0.2-5.6,1-8.8,1.6c-0.3,5.2-0.8,9.6-0.9,14.1
		c-1.3,67.5-2.6,134.9-3.8,202.4c-0.6,31.5-0.9,63-1.5,94.5c-1.1,58.5-2.2,116.9-3.3,175.4c-0.1,3.4-0.8,7,2.2,9.7
		c17,2.1,56.5,1.7,67.2-0.8c4.4-18.8,8.5-37.9,13.2-56.7c14-55.9,31.6-110.5,56.5-162.5c20.6-43.1,45.6-83.3,79-117.8
		c35.1-36.4,76.3-62.6,125.3-76.1c35.1-9.6,70.9-11.5,107-10C5165.9,1921,5166.8,1921.8,5168.3,1922.5z"/>
	<path d="M0,564c9-0.1,18-0.4,27-0.4c738.5,0,1476.9,0,2215.4,0c6.9,0,13.9-0.1,21.3-0.2c2.5-6.2,4.8-11.7,6.9-17.3
		c35.6-92.9,73.9-184.6,117.7-274c19.1-39.1,39.1-77.7,62.5-114.4c12.1-18.9,25.2-37.2,38.6-55.3c24.1-32.3,55.9-53.7,94.2-66
		c30-9.7,60.7-16.4,91.8-21.4c88.8-14.2,178.2-15,267.7-11.3c51.9,2.2,103.7,7.8,154.3,20.3c16.4,4,32.6,9.3,48.7,14.8
		c26.2,8.9,47.6,24.8,65.4,46c13.8,16.5,26.3,34,37.8,52.1c28.1,44.4,52.1,91.1,74.6,138.5c42.1,88.5,79.1,179.1,114,270.7
		c2.1,5.5,4.4,11,6.7,16.6c15.4,0,29.9-0.2,44.3,0c63,1,126,2,188.9,3.4c29,0.7,58,2.1,86.9,3.9c35.9,2.2,71.8,4.9,107.7,8
		c32.9,2.9,65.7,6.1,98.4,10.1c95.8,11.7,190.8,27.6,283.1,57.1c30.5,9.8,60.3,21.2,88.9,35.8c18.8,9.5,36.6,20.5,53.5,33
		c20.1,14.8,35.5,33.6,48,55c15.7,26.9,27.5,55.5,37.7,84.8c17.4,49.6,30.4,100.4,41.7,151.7c16.4,74.2,29.1,149.1,39.9,224.3
		c9.2,63.8,17.5,127.7,23.8,191.9c6.9,70.6,13.8,141.3,19.6,212c4.3,52.3,7.5,104.7,10.3,157.1c4,76.4,8,152.8,10.6,229.2
		c2.4,70.4,3.4,140.9,4,211.4c0.6,67,0.4,134-0.6,201c-1.4,91.5-4.2,182.9-10.6,274.2c-3.2,45.4-6,90.8-10.3,136.1
		c-8.3,88.6-19.3,176.9-38.4,263.9c-8.6,39.1-18.4,77.9-33.2,115.1c-6.7,16.7-14.6,32.8-22.7,48.9c-9.9,19.6-25,34.8-42.9,47.3
		c-17.7,12.4-36.9,22-56.7,30.4c-39.7,16.7-81,28.6-122.7,38.7c-57.8,14-116.2,25.2-175.1,33.6c-56.9,8.1-113.8,16-170.8,22.8
		c-44.6,5.4-89.5,9.3-134.3,13.3c-55.8,4.9-111.5,9.6-167.4,13.8c-38.9,2.9-77.8,4.9-116.7,7.2c-44.9,2.6-89.8,5.3-134.7,7.6
		c-31,1.6-61.9,2.7-92.9,3.9c-48,1.9-95.9,4-143.9,5.3c-70,1.9-139.9,2.9-209.9,5c-45,1.3-90,1-134.9-1c-41-1.8-81.7-5.9-122.3-11.5
		c-79.9-11.2-158-29.8-234.3-56c-175.6-60.2-331.4-153.6-466.6-280.8c-170.5-160.4-289.4-353.1-356.3-577.6
		c-19-63.8-32.5-128.8-41.2-194.8c-8.9-67.6-12.8-135.3-11-203.4c5.2-189.1,48.7-368.9,132.3-538.8c65.8-133.6,152.3-252.1,259-356
		c3.5-3.4,6.9-7.1,10.8-11c-3.2-13.9-6.3-27.5-9.6-41c-12.2-50.5-23.6-101.2-39-150.9c-16.7-54-36.8-106.7-63.3-156.8
		c-15-28.3-32.1-55.3-51.6-80.8c-40.8-53.4-92.5-91.9-155.3-116c-39.8-15.2-80.9-25.5-122.8-32.7c-56.3-9.7-113.2-13.1-170.2-14
		c-44.5-0.7-89-0.5-133.5-0.5c-132-0.1-264,0-396,0c-5.9,0-11.9,0.2-18.6,0.3c-0.6,3.4-1.4,6.2-1.6,9c-0.3,4-0.1,8-0.1,12
		c0,412,0,824,0,1235.9c0,6.4-0.6,12.9,0.9,19.9c3.9,0.4,7.3,1,10.6,1c54-0.3,108,0.4,162-1.3c54.5-1.7,108.5-7.9,161.9-19.8
		c49.2-11,89.6-35.9,123.2-72.7c41.4-45.4,70.9-97.7,90.4-155.8c15.3-45.6,25.5-92.4,33-139.9c7.8-49.4,12.9-99.1,15.8-149
		c0.3-4.4,1.1-8.8,1.7-13.5c10.3-3,20.3-1.3,30.2-1.5c10.5-0.3,21-0.2,31.5,0c9.8,0.1,19.8-0.7,29.8,0.7c0.6,3,1.2,5,1.2,6.9
		c0,412,0,823.9-0.1,1235.9c0,1.4-0.9,2.7-1.3,4c-11.4,1.9-74.6,2.2-89.9,0.4c-3.3-4.2-2.6-9.4-2.8-14.3
		c-2.5-49.4-6.8-98.7-12.9-147.9c-8-64.5-19.1-128.5-39.1-190.6c-14.5-45-34.7-87.3-62.9-125.4c-8.9-12-18.7-23.5-29.2-34.1
		c-25.7-26.3-56.5-44.1-92.2-53.4c-35.4-9.2-71.4-14.7-107.7-18.3c-54.8-5.4-109.7-6.7-164.8-6.3c-24,0.1-48,0-72,0
		c-4.9,0-9.9,0-15.5,0c-0.6,3.7-1.4,6.5-1.6,9.3c-0.2,4-0.1,8-0.1,12c0,434,0,868,0,1301.9c0,6.4-0.8,12.9,1.3,20.1
		c5.7,0.2,11.1,0.6,16.5,0.6c46,0,92,0,138,0c85.5,0,171,0,256.5,0c5.5,0,10.9,0,16.8,0c0.7,3.8,1.6,6.7,1.6,9.5c0.1,32,0.1,64,0,96
		c0,2.9-1.1,5.8-1.6,8.7c-417,0-834,0-1251,0c0-38.1,0-76,0-114c7.5-0.1,15-0.2,22.5-0.2c99.5,0,198.9,0,298.4,0c19,0,38,0,57,0
		c3.3,0,6.7-0.6,10.3-0.9c2-7.7,1.2-14.7,1.2-21.6c0-893.7,0-1787.3,0-2681c0-4.5,0.2-9-0.1-13.5c-0.2-2.8-1.2-5.6-2-9.1
		c-6.6,0-12.5,0-18.5,0c-116,0-231.9,0-347.9,0c-7,0-14-0.4-21-0.6C0,638,0,601,0,564z M3334.6,3419c9.9-0.5,19.8-1.1,29.6-1.6
		c47.4-2.3,94.9-4.5,142.3-6.9c20-1,39.9-2.4,59.9-3.7c36.4-2.5,72.8-5,109.2-7.7c30.4-2.2,60.8-4.3,91.2-7
		c37.3-3.3,74.6-7,111.9-10.8c31.8-3.2,63.7-6.1,95.4-10.2c47.6-6.1,95.1-12.8,142.5-19.9c56.8-8.4,113.3-19.2,169-33.2
		c37.3-9.4,74.4-19.9,109.5-35.8c13.1-6,25.7-13.3,38.1-20.7c10.5-6.3,18.7-15.2,23.9-26.3c6.6-14,13.5-27.9,19-42.3
		c18.5-48.3,29.2-98.6,38.5-149.3c14.1-76.8,23.2-154.2,29.6-231.9c4.8-58.3,8.8-116.6,11.8-175c4.3-84.4,6.7-168.8,7.3-253.3
		c1.3-179.5-1.6-358.9-11.9-538.2c-3.7-63.9-7.3-127.8-12.2-191.5c-5.2-67.8-11.3-135.5-18-203.1c-5.5-55.2-12-110.3-19.2-165.3
		c-10.1-77.3-22.4-154.3-38.1-230.7c-11.4-55.3-24.3-110.3-42-164c-9.1-27.6-19.6-54.5-33.2-80.2c-11.3-21.3-26.9-38.2-47.3-51
		c-20.8-13-42.7-23.9-65.5-33.1c-46.5-18.8-94.7-31.6-143.6-42.2c-78.7-17.1-158.5-27.7-238.6-35.3c-47.3-4.5-94.7-7-142.1-10.4
		c-65.9-4.6-131.8-5.9-197.8-6.6c-47-0.5-94,0.6-140.9,0.9c-5.4,0-10.9,1.3-16.1-0.9c-0.8-1.5-1.7-2.7-2.2-4.1
		c-1.6-4.2-3.1-8.4-4.7-12.6c-39.5-108-82.5-214.5-132.2-318.3c-20.9-43.7-43.3-86.8-69.6-127.6c-10-15.6-20.9-30.5-33.3-44.3
		c-7.5-8.3-16.3-14.8-26.5-19.1c-6-2.5-12.1-4.8-18.2-6.9c-32.9-11-66.9-16.2-101.1-20.6c-38.7-4.9-77.7-6.8-116.7-7.7
		c-66.6-1.5-132.9,1.8-198.9,11.2c-25.7,3.7-51,9.4-76.2,16.1c-35,9.3-62.1,28.4-82.7,58c-16,23-31.2,46.5-45,70.9
		c-27.6,48.8-51.8,99.2-74.7,150.3c-35.4,78.9-67.8,159-97.6,240.2c-1.9,5-2.8,10.6-7.5,15.2c-5.2,0-10.7,0-16.2,0
		c-63.5,0-127,0-190.5,0c-7,0-14-0.2-21,0.1c-2.8,0.1-5.5,1.2-8.9,2c6.3,179,12.6,357.3,18.9,535.6c0,0.8,1.1,1.5,2.9,3.9
		C2199,1096,2312,1034.2,2434.4,990c123.1-44.4,250-69.4,380.7-75.4c130.3-5.9,258.6,7.2,384.8,39.8
		c126.2,32.6,244.7,83.4,355.4,152.2c111.3,69,209.9,153,295.8,251.8c85.6,98.4,155,207.2,207.4,326.6
		c92.4,210.6,125.9,430.7,102.1,659.2c-22.1,211.2-92.5,405.6-211.2,581.7C3795.9,3153.5,3589.9,3316.1,3334.6,3419z M2874.6,981.8
		c-679.1,0.6-1224.3,551-1224.8,1224c-0.5,671,542,1225.3,1224.8,1225.3c680.6,0,1223.6-551.3,1224.8-1222.3
		C4100.5,1533.3,3553.7,982.4,2874.6,981.8z"/>
	<path class="st0" d="M0,675c7,0.2,14,0.6,21,0.6c116,0,231.9,0,347.9,0c6,0,11.9,0,18.5,0c0.8,3.6,1.8,6.3,2,9.1
		c0.3,4.5,0.1,9,0.1,13.5c0,893.7,0,1787.3,0,2681c0,6.9,0.9,13.9-1.2,21.6c-3.6,0.3-7,0.9-10.3,0.9c-19,0.1-38,0-57,0
		c-99.5,0-198.9,0-298.4,0c-7.5,0-15,0.1-22.5,0.2C0,2493,0,1584,0,675z"/>
	<path d="M9033,1920c-17,0.2-34,0.3-51,0.5c-21.5,0.2-43,1.4-64.1,5.6c-8.3,1.7-16.5,4.2-24.4,7.2c-13.8,5.2-23.2,15.1-28.9,28.7
		c-7.2,17.3-10.2,35.5-11.4,54c-1.1,16.4-1.5,33-1.5,49.5c-0.1,436-0.1,872-0.1,1307.9c0,6.9-0.2,13.9-0.3,21.4
		c-9.1,2.4-17.5,1.1-25.8,1.3c-9,0.2-18,0.1-27,0.1c-8.5,0-17,0-26.4,0c-2.8-3.9-5.7-7.9-8.5-12
		c-97.4-144.1-194.8-288.2-292.3-432.3c-199-294.4-398.1-588.9-597.2-883.3c-2.6-3.9-4.5-8.7-9.7-11.5c-0.7,2.2-1.3,3.5-1.4,4.8
		c-0.2,4.5-0.1,9-0.1,13.5c0,357.5,0,715,0,1072.5c0,23,0,46,3.1,68.9c1.6,11.9,3.8,23.7,6.5,35.3c4.8,20.9,17.9,33.8,38.6,39.6
		c17,4.7,34.2,7.7,51.7,8c32.5,0.6,65,0.4,97.5,0.6c5.4,0,10.8,0.3,15.9,0.4c2.9,10.9,3.5,51.7,1.3,73.1c-2.5,0.5-5.2,1.2-8,1.4
		c-3.5,0.3-7,0.1-10.5,0.1c-148,0-296,0-444,0c-5.9,0-11.8-0.3-17.5-0.4c-2.7-11.2-3.3-53.1-1.1-73.2c3-0.5,6.3-1.4,9.6-1.4
		c21.5-0.2,43-0.1,64.5-0.2c18.1-0.1,36-1.8,53.5-6.3c8.6-2.2,17.2-5.4,25.2-9.2c10.4-4.9,17.2-13.3,21.1-24.2
		c4.5-12.8,6.9-26.1,8.6-39.5c3.9-29.8,4.6-59.8,5.5-89.8c0.3-10.5,0.2-21,0.2-31.5c0-345.5,0.1-691-0.1-1036.5
		c0-22-0.9-44-2.6-65.9c-1-12.9-3.8-25.7-6.7-38.3c-3.6-15.4-13.8-25.4-28.9-29.6c-10.6-2.9-21.4-5.5-32.2-6.4
		c-18.4-1.6-36.9-2.2-55.4-2.6c-18.5-0.4-37,0-55.5-0.1c-4.4,0-8.8-0.4-12.9-0.6c-2.5-12.5-2.6-58-0.2-71.5c2.6-0.4,5.4-1.1,8.3-1.2
		c4-0.2,8-0.1,12-0.1c178,0,356,0,534,0c6.5,0,12.9,0,20,0c50.9,74.7,101.1,149.3,151.5,223.7c50.5,74.5,100.8,149.1,151.2,223.6
		c50.1,74.1,100.2,148.2,150.4,222.3c50.4,74.4,100.6,148.9,152.5,225.3c1.2-4.1,1.9-5.7,2-7.4c0.2-4,0.1-8,0.1-12
		c0-210.5,0-421,0-631.5c0-31-0.8-62-6-92.7c-1.8-10.8-4.7-21.4-7.9-31.9c-5-16.4-16.3-27.2-32-33.5c-14-5.7-28.7-8.5-43.6-10.2
		c-28.9-3.3-57.9-2.1-86.9-2.3c-7.4-0.1-14.9,0-22.8,0c-3.3-12.7-1.4-24.6-1.7-36.4c-0.3-11.4-0.1-22.9-0.1-35.1
		c3.6-0.8,6.3-1.7,9.1-1.9c4-0.3,8-0.1,12-0.1c141,0,282,0,423,0c6,0,11.9,0.6,17.9,0.9C9033,1872,9033,1896,9033,1920z"/>
	<path d="M7490.7,2605.2c0,69.7-4.4,131.4-14.8,192.7c-17.6,103.1-51.2,200.3-108,288.6c-61.7,95.8-141.2,173.3-240.3,230.1
		c-63.1,36.1-130.8,59.3-202.5,70.9c-58.5,9.4-117.3,10.9-176.4,6.2c-60.1-4.9-118.6-17-175.1-38c-90.7-33.7-168.3-87.1-234.3-157.5
		c-96.6-102.9-160.1-223.6-192.4-360.9c-21.9-92.6-28.9-186.5-24.7-281.4c3-69.2,12.4-137.3,30.9-204.1
		c49.1-177.2,150.6-317.2,301.9-420.9c74-50.8,156.1-82.5,244.6-97c66-10.8,132.3-12.2,198.7-3.1c90.5,12.4,174,43.8,251.1,92.7
		c62,39.4,117.5,86.5,165.9,141.8c67.4,77,111.8,166.3,139.4,264.3c13.3,47.2,22.3,95.3,27.9,144
		C7488,2519.8,7490.4,2566.2,7490.7,2605.2z M7064.7,2607c0-47,0.4-94-0.1-140.9c-1-92.5-2.4-184.9-8.8-277.2
		c-2.4-34.4-6.4-68.7-15.1-102.2c-10.7-41.5-27.3-80.3-53.5-114.7c-13.2-17.3-29.3-31.4-48.1-42.2c-14.4-8.3-29.6-14.5-45.6-18.7
		c-51.2-13.4-102.8-14.6-154.4-3.9c-76,15.7-127.9,60.1-155.3,133c-9.4,24.9-15.7,50.6-19.7,76.8c-6.8,44-9.5,88.5-11.3,132.9
		c-2.4,57.4-4.2,114.9-4.9,172.3c-1.1,90-1.6,179.9-1.3,269.9c0.4,110.4,1.6,220.9,8.5,331.2c2.3,37.4,6,74.7,15.3,111.2
		c9.7,38.1,24.6,73.8,47.5,106.1c24.3,34.3,56.7,57,96.9,69.3c34.9,10.7,70.6,13.1,106.7,12c22.1-0.7,43.8-3.7,65-9.8
		c65-18.6,111.8-58.1,137.6-121.3c3-7.4,5.8-14.9,8.4-22.5c11.5-33.8,16.7-68.9,20.1-104.2c5-51.3,7.3-102.7,8.9-154.1
		C7064.3,2808.9,7065.8,2708,7064.7,2607z"/>
	<path d="M5168.3,1922.5c-1.5-0.8-2.4-1.6-3.3-1.6c-36.1-1.5-71.9,0.4-107,10c-49,13.4-90.2,39.7-125.3,76.1
		c-33.3,34.6-58.3,74.7-79,117.8c-24.9,52-42.5,106.7-56.5,162.5c-4.7,18.9-8.8,37.9-13.2,56.7c-10.7,2.5-50.1,2.9-67.2,0.8
		c-3-2.7-2.3-6.4-2.2-9.7c1.1-58.5,2.2-116.9,3.3-175.4c0.6-31.5,0.9-63,1.5-94.5c1.2-67.5,2.5-134.9,3.8-202.4
		c0.1-4.4,0.5-8.9,0.9-14.1c3.2-0.6,6-1.4,8.8-1.6c4-0.3,8-0.1,12-0.1c407.9,0,815.9,0,1223.8,0c6.4,0,12.9-0.5,19.3,0.9
		c0.6,3.3,1.4,5.7,1.5,8.1c2.9,161.4,5.7,322.9,8.5,484.3c0,1.4-0.8,2.7-1.2,4c-12,2.2-54.4,2.3-67.8,0c-1.3-5.4-2.7-11.2-3.9-17
		c-12.5-58.2-28.3-115.5-51.1-170.6c-14.5-35.2-31.7-69-53.2-100.5c-17.8-26.1-38.1-50.1-62.3-70.6c-43.2-36.7-92.9-57.8-149.4-63.3
		c-20.9-2-41.8-1.9-63.5-1.6c-0.7,3.3-1.6,6-1.8,8.8c-0.3,4-0.1,8-0.1,12c0,445.9,0,891.8,0,1337.8c0,6.4,0.2,12.8,0.3,19.4
		c6.1,2.5,11.6,1.6,17,1.6c65,0.1,130,0.1,195,0.1c5.5,0,10.9,0,16.7,0c0.9,2.5,2,4.2,2,6c0.1,21.5,0,43-0.1,64.5
		c0,0.9-0.7,1.8-1.1,2.6c-0.3,0.4-0.6,0.8-1,1.1c-0.4,0.2-1,0.4-1.4,0.4c-273.4,0.2-546.9,0.3-820.3,0.5c-2.5,0-5-0.1-7.5-0.4
		c-0.9-0.1-1.8-0.8-2.6-1.2c-2.3-10.8-2.6-56.9-0.3-72.1c4.8-2.4,10.3-1.4,15.6-1.4c65-0.1,130-0.1,195-0.1c5.4,0,10.9,0,17,0
		c0.6-3.8,1.3-6.6,1.4-9.4c0.2-4.5,0.1-9,0.1-13.5c0-444.9,0-889.8-0.1-1334.8C5169.4,1935.9,5170.5,1928.8,5168.3,1922.5z"/>
	<path class="st0" d="M3334.6,3419c255.3-102.9,461.3-265.4,614.8-493.1c118.7-176.1,189.1-370.5,211.2-581.7
		c23.9-228.5-9.6-448.6-102.1-659.2c-52.4-119.4-121.8-228.2-207.4-326.6c-85.9-98.8-184.5-182.8-295.8-251.8
		c-110.8-68.7-229.3-119.6-355.4-152.2c-126.2-32.6-254.5-45.7-384.8-39.8c-130.8,5.9-257.7,31-380.7,75.4
		c-122.4,44.2-235.4,105.9-339.2,184.1c-1.9-2.4-2.9-3.2-2.9-3.9c-6.3-178.3-12.6-356.6-18.9-535.6c3.4-0.8,6.1-1.9,8.9-2
		c7-0.3,14-0.1,21-0.1c63.5,0,127,0,190.5,0c5.5,0,10.9,0,16.2,0c4.7-4.5,5.7-10.1,7.5-15.2c29.8-81.2,62.2-161.3,97.6-240.2
		c22.9-51.1,47.2-101.5,74.7-150.3c13.8-24.4,29-47.9,45-70.9c20.6-29.6,47.7-48.8,82.7-58c25.2-6.7,50.5-12.4,76.2-16.1
		c66-9.4,132.3-12.7,198.9-11.2c39,0.9,77.9,2.8,116.7,7.7c34.2,4.3,68.3,9.6,101.1,20.6c6.1,2.1,12.2,4.4,18.2,6.9
		c10.3,4.3,19,10.8,26.5,19.1c12.4,13.8,23.3,28.7,33.3,44.3c26.3,40.8,48.7,83.8,69.6,127.6c49.6,103.8,92.6,210.3,132.2,318.3
		c1.5,4.2,3.1,8.5,4.7,12.6c0.5,1.4,1.4,2.6,2.2,4.1c5.2,2.3,10.8,1,16.1,0.9c47-0.3,94-1.4,140.9-0.9c66,0.7,132,2,197.8,6.6
		c47.4,3.3,94.8,5.9,142.1,10.4c80.1,7.6,159.8,18.2,238.6,35.3c48.9,10.6,97.1,23.4,143.6,42.2c22.7,9.2,44.6,20,65.5,33.1
		c20.4,12.8,36.1,29.7,47.3,51c13.6,25.7,24.1,52.7,33.2,80.2c17.7,53.7,30.6,108.6,42,164c15.7,76.4,28,153.4,38.1,230.7
		c7.2,55,13.7,110.1,19.2,165.3c6.8,67.6,12.9,135.3,18,203.1c4.9,63.8,8.5,127.7,12.2,191.5c10.3,179.3,13.2,358.7,11.9,538.2
		c-0.6,84.5-3.1,169-7.3,253.3c-3,58.4-7,116.8-11.8,175c-6.5,77.7-15.5,155.2-29.6,231.9c-9.3,50.6-20,101-38.5,149.3
		c-5.5,14.4-12.4,28.3-19,42.3c-5.3,11.1-13.5,20-23.9,26.3c-12.4,7.4-25,14.8-38.1,20.7c-35.1,15.9-72.2,26.4-109.5,35.8
		c-55.8,14-112.2,24.8-169,33.2c-47.4,7-94.9,13.7-142.5,19.9c-31.7,4.1-63.6,7-95.4,10.2c-37.3,3.8-74.6,7.5-111.9,10.8
		c-30.4,2.7-60.8,4.8-91.2,7c-36.4,2.6-72.8,5.2-109.2,7.7c-19.9,1.4-39.9,2.7-59.9,3.7c-47.4,2.4-94.9,4.6-142.3,6.9
		C3354.3,3417.9,3344.4,3418.4,3334.6,3419z"/>
	<path class="st0" d="M2874.6,981.8c679.1,0.6,1225.9,551.6,1224.7,1227c-1.2,671-544.2,1222.3-1224.8,1222.3
		c-682.8,0-1225.3-554.4-1224.8-1225.3C1650.2,1532.8,2195.4,982.4,2874.6,981.8z M3786.3,2209.5c1.2-502.2-405.7-906.5-901.7-911.1
		c-497.8-4.6-917.9,396.3-918.2,909.6c-0.2,508.9,413,909.6,908.5,910.3C3377.2,3119,3786.5,2711.9,3786.3,2209.5z"/>
	<path class="st0" d="M7064.7,2607c1.2,101-0.4,201.9-3.4,302.8c-1.5,51.4-3.9,102.9-8.9,154.1c-3.4,35.4-8.6,70.4-20.1,104.2
		c-2.6,7.6-5.3,15.1-8.4,22.5c-25.8,63.1-72.6,102.6-137.6,121.3c-21.2,6.1-43,9.1-65,9.8c-36.1,1.1-71.8-1.3-106.7-12
		c-40.1-12.3-72.5-34.9-96.9-69.3c-22.9-32.3-37.8-68-47.5-106.1c-9.3-36.5-12.9-73.8-15.3-111.2c-6.9-110.3-8.1-220.7-8.5-331.2
		c-0.3-90,0.2-179.9,1.3-269.9c0.7-57.5,2.5-114.9,4.9-172.3c1.8-44.4,4.5-88.8,11.3-132.9c4.1-26.2,10.3-51.9,19.7-76.8
		c27.4-72.8,79.3-117.2,155.3-133c51.7-10.7,103.3-9.4,154.4,3.9c16,4.2,31.3,10.4,45.6,18.7c18.9,10.8,34.9,24.9,48.1,42.2
		c26.2,34.3,42.7,73.1,53.5,114.7c8.7,33.5,12.7,67.7,15.1,102.2c6.4,92.3,7.7,184.7,8.8,277.2C7065.1,2513,7064.7,2560,7064.7,2607
		z"/>
	<path d="M3786.3,2209.5c0.2,502.4-409.2,909.5-911.3,908.9c-495.5-0.6-908.7-401.3-908.5-910.3c0.2-513.4,420.4-914.2,918.2-909.6
		C3380.6,1303,3787.5,1707.3,3786.3,2209.5z M2861.1,3047.8c-2.8-5.9-4.8-10.4-7-14.8c-42.6-84.4-81.2-170.5-115-258.8
		c-54-140.7-95.4-285.2-128.9-431.9c-14.9-65.3-28.2-130.9-42.3-196.3c-0.5-2.2-1.7-4.3-3-7.6c-3.3,3.6-5.8,5.9-7.9,8.6
		c-70.4,89.8-136.6,182.4-196.2,279.8c-54.6,89.3-103,181.7-142.7,278.6c-2.4,5.9-4.5,12-6.9,18.3
		c86.4,110.4,192.9,194.2,319.8,252.3C2650,3030.2,2786.7,3051.6,2861.1,3047.8z M3535.3,2727.9c-4.8-1.1-9.5-2.3-14.3-3.3
		c-47.8-10.5-95.8-20-143.3-31.7c-148.6-36.8-292.8-86.9-433.3-147.7c-94-40.7-186-85.5-276.5-133.4c-4.8-2.5-9.6-4.9-16.3-8.3
		c0.9,5.9,1.1,9.8,2.1,13.4c14.4,52.5,28,105.2,43.5,157.4c47.6,160.4,110.7,314.6,187.2,463.3c2,3.9,4.5,7.6,6.9,11.6
		c3.5,0,6.5,0,9.4,0c45.1-0.8,89.7-5.8,134-14.3c120-23.1,229.8-70.1,329.4-140.9c61.9-44,116.7-95.5,164.6-154.4
		C3531.5,2736.3,3535.5,2733.5,3535.3,2727.9z M2194.2,2697.5c4.5-10.5,8.4-19.7,12.3-28.8c49.6-115.6,111.2-224.7,180.5-329.6
		c72.3-109.4,152.1-213.1,236.5-313.5c27.3-32.5,55.3-64.5,82.9-96.8c2.1-2.4,5.9-4.4,3.8-9.1c-2.3-0.2-4.7-0.6-7.2-0.6
		c-46,0.6-92,0.4-137.9,1.9c-59.4,2-118.9,4.9-178.1,10.7c-34.3,3.3-68.7,6.3-102.9,10.4c-50.6,6-101,13.5-151.1,22.9
		c-21.6,4-43.1,8.4-64,12.6c-13.8,32.7-33.5,127.3-34,225.2c-0.6,111.2,19.6,218.6,61.6,321.8
		C2121.6,2586.2,2171.4,2675.2,2194.2,2697.5z M2076.3,1949.9c4.8-0.6,8.1-0.9,11.4-1.5c41.8-7.3,83.5-15.6,125.5-21.7
		c45-6.5,90.2-11.7,135.4-16.2c45.7-4.5,91.6-8.3,137.5-10.8c52.9-2.8,105.9-4.2,158.8-5.4c80-1.7,159.9,0.4,239.9,2.4
		c4.5,0.1,9,0.4,13.5,0.6c31.9,1.5,63.9,2.9,95.8,4.3c3.3,0.1,6.6-0.2,11.4-0.3c-3.2-6.9-7.4-11-11.1-15.5
		c-82.3-100-168.8-196.3-260.1-288.2c-54.6-55-110.8-108.3-170.4-157.9c-3.4-2.8-7-5.4-10.1-7.7
		C2337.8,1518.3,2150.4,1712.8,2076.3,1949.9z M3698.5,2028.1c-4.1,3.3-6.1,4.7-7.8,6.4c-61.3,59.1-128.5,111.1-198.7,159.2
		c-96.2,65.8-197.2,123.6-300.9,176.6c-88.5,45.3-178.9,86.7-270.4,125.3c-3.5,1.5-6.8,3.2-10.6,5.1c12.2,8.9,53.1,26.7,136.3,59.6
		c164.4,65,333.4,113.6,506.9,145.2c43.6-42.6,113.7-188.8,139-290.3C3724.1,2287.5,3726.2,2159.3,3698.5,2028.1z M2585.6,2111
		c13.7,64.4,27.1,127.9,40.8,191.4c4.3,20,9.3,39.9,13.7,59.9c1.1,4.8,3.2,8.3,7.6,10.4c1.8,0.9,3.5,1.9,5.3,2.8
		c69.1,37.1,138.9,72.6,210,105.7c4.5,2.1,9,3.9,13.3,5.7c77-31.4,152.2-64.9,226.5-100.5c6.5-3.1,9.8-7.3,11.7-14.2
		c15.7-55.7,31.9-111.3,47.7-167.1c6.4-22.5,11.9-45.3,17.5-67.1c-19.8-37.2-129.3-187.5-153.1-209.9c-92.2-4.9-185.5-9.3-278.7-8.7
		C2692.4,1982.3,2638.5,2045.2,2585.6,2111z M3187.5,2101.9c2-6.8,3.3-10.5,4.2-14.4c6.2-28.8,12.6-57.6,18.3-86.5
		c11.7-58.8,21.5-118,28-177.6c4.1-37.7,8-75.5,10.8-113.4c2.5-33.9,4.3-67.9,5-101.8c0.8-45.5,0.3-90.9,0.2-136.4
		c0-5.4,0.8-11.1-2.4-15.9c-214.9-112-480.9-111.3-669.7-34.2c13.6,12.6,27.5,23.8,40.7,35.7c13,11.7,26,23.4,38.9,35.3
		c13.2,12.2,26.3,24.6,39.2,37.1c13,12.5,25.8,25.1,38.6,37.8c12.8,12.7,25.4,25.5,38,38.3c12.2,12.5,24.4,25.1,36.4,37.8
		c12.4,13,24.7,26.2,36.9,39.4c12.2,13.2,24.3,26.5,36.4,39.9c11.7,13,23.4,26,34.9,39.2c11.9,13.5,23.7,27.1,35.4,40.8
		c11.7,13.7,23.3,27.4,34.9,41.2c11.2,13.4,22.4,26.9,33.4,40.5c11.3,14,22.6,28,33.8,42.1c11.1,14.1,22.2,28.3,33.1,42.7
		c10.9,14.3,21.7,28.7,32.3,43.2c10.3,14.1,20.5,28.3,30.6,42.6C3165.4,2069.8,3175.5,2084.6,3187.5,2101.9z M3279,1471.3
		c0,7.3-0.1,13.3,0,19.2c1.4,87-0.9,173.9-8.5,260.6c-5.8,66.2-14.2,132.1-25.6,197.6c-16.4,95.1-38.1,188.9-63.9,281.9
		c-11.5,41.4-23.5,82.6-35.2,123.9c-0.9,3.1-3.5,6.3,0.6,9.8c3.4-1.5,7.1-2.9,10.6-4.8c38.9-20.4,78.1-40.4,116.6-61.6
		c89.9-49.4,176.9-103.2,259.5-164.1c49.5-36.5,97.1-75.4,141.2-118.3c5.7-5.5,11.9-10.6,16.7-18.1c-16.5-65.5-41.2-128-73.4-187.6
		c-47.9-88.9-110-166.6-185.7-233.4C3385.5,1535.6,3310.5,1483.6,3279,1471.3z"/>
	<path class="st0" d="M2861.1,3047.8c-74.3,3.9-211-17.6-330-72c-127-58-233.4-141.9-319.8-252.3c2.4-6.3,4.5-12.3,6.9-18.3
		c39.6-96.9,88.1-189.3,142.7-278.6c59.6-97.4,125.8-190,196.2-279.8c2.1-2.7,4.6-5,7.9-8.6c1.3,3.3,2.5,5.4,3,7.6
		c14.1,65.4,27.4,131.1,42.3,196.3c33.5,146.8,74.9,291.2,128.9,431.9c33.9,88.2,72.5,174.4,115,258.8
		C2856.3,3037.3,2858.3,3041.8,2861.1,3047.8z"/>
	<path class="st0" d="M3535.3,2727.9c0.2,5.6-3.8,8.4-6.5,11.8c-47.9,58.9-102.8,110.4-164.6,154.4
		c-99.6,70.8-209.4,117.8-329.4,140.9c-44.2,8.5-88.9,13.5-134,14.3c-3,0-5.9,0-9.4,0c-2.4-4.1-4.9-7.7-6.9-11.6
		c-76.5-148.7-139.6-302.9-187.2-463.3c-15.5-52.2-29.1-104.9-43.5-157.4c-1-3.7-1.2-7.5-2.1-13.4c6.7,3.4,11.5,5.8,16.3,8.3
		c90.5,47.9,182.5,92.8,276.5,133.4c140.5,60.8,284.7,110.9,433.3,147.7c47.5,11.8,95.5,21.2,143.3,31.7
		C3525.8,2725.6,3530.5,2726.8,3535.3,2727.9z"/>
	<path class="st0" d="M2194.2,2697.5c-22.9-22.3-72.6-111.3-97.7-172.9c-42-103.2-62.2-210.6-61.6-321.8
		c0.5-97.9,20.1-192.4,34-225.2c20.9-4.1,42.4-8.5,64-12.6c50.1-9.4,100.5-16.9,151.1-22.9c34.2-4.1,68.6-7.1,102.9-10.4
		c59.2-5.7,118.6-8.7,178.1-10.7c46-1.5,92-1.4,137.9-1.9c2.5,0,4.9,0.4,7.2,0.6c2.1,4.7-1.7,6.7-3.8,9.1
		c-27.6,32.3-55.5,64.3-82.9,96.8c-84.3,100.3-164.2,204-236.5,313.5c-69.3,104.9-130.9,213.9-180.5,329.6
		C2202.6,2677.9,2198.7,2687,2194.2,2697.5z"/>
	<path class="st0" d="M2076.3,1949.9c74.1-237.1,261.6-431.6,477.4-517.7c3.1,2.4,6.7,4.9,10.1,7.7
		c59.6,49.6,115.8,102.9,170.4,157.9c91.3,91.9,177.8,188.1,260.1,288.2c3.7,4.5,7.9,8.6,11.1,15.5c-4.8,0.1-8.1,0.5-11.4,0.3
		c-32-1.4-63.9-2.9-95.8-4.3c-4.5-0.2-9-0.5-13.5-0.6c-79.9-2-159.9-4.1-239.9-2.4c-53,1.1-105.9,2.6-158.8,5.4
		c-45.9,2.4-91.7,6.2-137.5,10.8c-45.2,4.5-90.4,9.7-135.4,16.2c-42,6.1-83.7,14.4-125.5,21.7
		C2084.4,1949,2081,1949.3,2076.3,1949.9z"/>
	<path class="st0" d="M3698.5,2028.1c27.7,131.2,25.6,259.4-6.2,387.1c-25.3,101.5-95.4,247.7-139,290.3
		c-173.5-31.6-342.5-80.2-506.9-145.2c-83.2-32.9-124.1-50.8-136.3-59.6c3.8-1.8,7.1-3.6,10.6-5.1c91.6-38.7,181.9-80,270.4-125.3
		c103.7-53.1,204.7-110.8,300.9-176.6c70.2-48.1,137.3-100,198.7-159.2C3692.5,2032.8,3694.4,2031.4,3698.5,2028.1z"/>
	<path class="st0" d="M2585.6,2111c52.8-65.8,106.8-128.7,162.3-191.5c93.2-0.5,186.4,3.8,278.7,8.7
		c23.7,22.4,133.3,172.7,153.1,209.9c-5.7,21.8-11.2,44.5-17.5,67.1c-15.7,55.7-31.9,111.3-47.7,167.1c-1.9,6.8-5.2,11.1-11.7,14.2
		c-74.3,35.6-149.6,69-226.5,100.5c-4.2-1.8-8.8-3.6-13.3-5.7c-71.1-33.1-141-68.6-210-105.7c-1.8-0.9-3.5-2-5.3-2.8
		c-4.4-2.2-6.5-5.7-7.6-10.4c-4.4-20-9.4-39.9-13.7-59.9C2612.7,2238.9,2599.3,2175.4,2585.6,2111z"/>
	<path class="st0" d="M3187.5,2101.9c-12-17.3-22.1-32.1-32.4-46.7c-10.1-14.3-20.3-28.5-30.6-42.6c-10.6-14.5-21.4-28.9-32.3-43.2
		c-10.9-14.3-21.9-28.5-33.1-42.7c-11.1-14.1-22.4-28.2-33.8-42.1c-11-13.6-22.2-27.1-33.4-40.5c-11.5-13.8-23.2-27.5-34.9-41.2
		c-11.7-13.7-23.5-27.2-35.4-40.8c-11.5-13.1-23.2-26.2-34.9-39.2c-12.1-13.4-24.2-26.7-36.4-39.9c-12.2-13.2-24.5-26.3-36.9-39.4
		c-12-12.7-24.2-25.3-36.4-37.8c-12.6-12.9-25.3-25.6-38-38.3c-12.8-12.7-25.6-25.3-38.6-37.8c-13-12.5-26-24.8-39.2-37.1
		c-12.8-11.9-25.9-23.5-38.9-35.3c-13.2-11.9-27.1-23.1-40.7-35.7c188.8-77.1,454.9-77.8,669.7,34.2c3.2,4.8,2.3,10.5,2.4,15.9
		c0.1,45.5,0.7,91-0.2,136.4c-0.6,34-2.4,67.9-5,101.8c-2.8,37.9-6.7,75.7-10.8,113.4c-6.5,59.6-16.3,118.8-28,177.6
		c-5.7,28.9-12.1,57.7-18.3,86.5C3190.8,2091.4,3189.5,2095.1,3187.5,2101.9z"/>
	<path class="st0" d="M3279,1471.3c31.5,12.2,106.5,64.2,152.9,105.3c75.7,66.8,137.8,144.5,185.7,233.4
		c32.1,59.6,56.9,122.1,73.4,187.6c-4.9,7.4-11.1,12.5-16.7,18.1c-44.2,42.9-91.7,81.8-141.2,118.3
		c-82.6,60.9-169.6,114.8-259.5,164.1c-38.5,21.2-77.7,41.1-116.6,61.6c-3.5,1.8-7.2,3.2-10.6,4.8c-4-3.5-1.5-6.8-0.6-9.8
		c11.7-41.3,23.8-82.5,35.2-123.9c25.8-92.9,47.5-186.8,63.9-281.9c11.3-65.5,19.8-131.4,25.6-197.6c7.6-86.7,9.9-173.6,8.5-260.6
		C3278.9,1484.6,3279,1478.6,3279,1471.3z"/>
</g>
</svg>
